<?xml version="1.0" encoding="UTF-8" standalone="no"?>
<!DOCTYPE svg PUBLIC "-//W3C//DTD SVG 1.1//EN" "http://www.w3.org/Graphics/SVG/1.1/DTD/svg11.dtd">
<svg width="100%" height="100%" viewBox="0 0 4000 4000" version="1.1" xmlns="http://www.w3.org/2000/svg" xmlns:xlink="http://www.w3.org/1999/xlink" xml:space="preserve" xmlns:serif="http://www.serif.com/" style="fill-rule:evenodd;clip-rule:evenodd;stroke-linejoin:round;stroke-miterlimit:2;">
    <g transform="matrix(1.58582,-0.656848,0.656869,1.58577,-2476.06,156.227)">
        <g id="Outline-Extra-fett" serif:id="Outline Extra fett" transform="matrix(0.596053,8.32667e-17,-8.32667e-17,0.596053,807.636,790.149)">
            <path d="M1890.97,597.566C1894.18,533.566 1896.27,480.692 1896.27,450.349C1896.27,370.591 1854.72,338.644 1822.9,306.48C1790.83,274.056 1766.1,241.105 1766.1,188.881C1766.1,116.325 1807.04,70.937 1860.1,44.222C1906.38,20.923 1962.24,12.976 2000.86,12.458C2038.11,11.959 2093.76,19.167 2140.16,41.689C2193.47,67.569 2234.77,112.214 2234.77,183.147C2234.77,238.025 2210.19,271.988 2178.68,304.905C2146.83,338.183 2105.11,370.129 2104.6,451.189C2104.46,472.177 2107.06,527.163 2110.97,598.195C2230.28,607.771 2345.41,632.276 2454.45,669.822C2463.17,624.507 2445.99,592.743 2434.18,563.037C2418.85,524.464 2410.02,488.04 2428.56,444.175C2454.34,383.135 2504.75,359.392 2558.72,355.706C2605.18,352.534 2654.18,365.422 2686.31,378.491C2717.32,391.102 2760.84,416.574 2791.34,451.513C2826.86,492.194 2845.52,544.431 2820.29,604.151C2800.84,650.189 2768.37,670.108 2730.36,686.596C2700.37,699.608 2665.3,709.553 2638.33,748.238C2736.97,798.9 2828.86,860.877 2912.24,932.445C2961.02,888.346 3000.98,851.462 3022.85,829.592C3079.25,773.195 3072.46,721.222 3072.71,675.983C3072.95,630.378 3078.77,589.59 3115.7,552.662C3167,501.357 3228.05,498.215 3284.45,516.844C3333.65,533.092 3378.77,566.968 3406.45,593.913C3433.14,619.896 3467.39,664.348 3484.28,713.081C3503.67,769.078 3501.31,829.848 3451.15,880.005C3412.34,918.81 3370.95,925.45 3325.39,926.444C3279.34,927.449 3227.25,920.537 3169.57,977.495C3154.39,992.478 3116.41,1034.26 3067.82,1088.52C3139.47,1172.55 3201.41,1265.11 3251.89,1364.48C3292.58,1337.89 3302.68,1301.99 3315.34,1271.62C3331.3,1233.31 3350.43,1201.08 3394.33,1182.63C3455.41,1156.95 3508.07,1175.17 3549.27,1210.22C3584.74,1240.4 3610.8,1283.84 3624.67,1315.64C3638.06,1346.32 3651.42,1394.95 3648.85,1441.26C3645.85,1495.18 3622.72,1545.6 3562.96,1570.72C3516.88,1590.08 3479.73,1581.66 3441.02,1566.91C3409.8,1555.02 3377.01,1537.14 3329.04,1547.37C3366.1,1656.21 3390.19,1771.08 3399.43,1890.11C3465.17,1893.43 3519.57,1895.6 3550.52,1895.6C3630.28,1895.6 3662.22,1854.05 3694.39,1822.24C3726.81,1790.17 3759.76,1765.43 3811.99,1765.43C3884.54,1765.43 3929.93,1806.38 3956.64,1859.44C3979.94,1905.72 3987.89,1961.57 3988.41,2000.19C3988.91,2037.44 3981.7,2093.1 3959.18,2139.49C3933.3,2192.8 3888.65,2234.1 3817.72,2234.1C3762.84,2234.1 3728.88,2209.53 3695.96,2178.02C3662.68,2146.16 3630.74,2104.44 3549.68,2103.93C3528.38,2103.8 3472.07,2106.47 3399.45,2110.48C3390.04,2232.17 3365.09,2349.53 3326.6,2460.6C3373.77,2470.97 3406.39,2453.01 3436.85,2440.78C3475.42,2425.28 3511.85,2416.36 3555.62,2434.85C3616.49,2460.57 3640.13,2511.05 3643.67,2565.21C3646.71,2611.72 3633.74,2660.82 3620.63,2693.03C3607.99,2724.1 3582.5,2767.75 3547.62,2798.39C3506.91,2834.13 3454.68,2852.92 3395.13,2827.76C3349.19,2808.35 3329.34,2775.81 3312.97,2737.69C3299.71,2706.8 3289.72,2670.51 3248.35,2643.3C3198.6,2739.9 3137.97,2830.01 3068.11,2912.01C3111.84,2960.38 3148.42,3000 3170.16,3021.74C3226.56,3078.14 3278.53,3071.35 3323.77,3071.59C3369.38,3071.84 3410.16,3077.66 3447.09,3114.58C3498.4,3165.89 3501.54,3226.93 3482.91,3283.34C3466.66,3332.54 3432.79,3377.66 3405.84,3405.33C3379.86,3432.02 3335.41,3466.28 3286.67,3483.16C3230.68,3502.56 3169.91,3500.19 3119.75,3450.04C3080.95,3411.23 3074.31,3369.84 3073.31,3324.28C3072.31,3278.23 3079.22,3226.14 3022.26,3168.46C3007.41,3153.42 2966.23,3115.97 2912.7,3068.02C2827.13,3141.52 2732.62,3204.91 2631.02,3256.35C2657.29,3293.91 2692.01,3303.63 2721.49,3315.78C2759.92,3331.63 2792.22,3350.69 2810.63,3394.5C2836.24,3455.42 2817.9,3508.06 2782.61,3549.29C2752.3,3584.69 2708.72,3610.78 2676.85,3624.68C2646.09,3638.09 2597.37,3651.53 2551.01,3649.09C2496.9,3646.24 2446.4,3623.21 2421.35,3563.61C2402.03,3517.63 2410.56,3480.48 2425.46,3441.77C2437.14,3411.44 2454.54,3379.64 2446.1,3333.88C2339.18,3369.93 2226.54,3393.48 2109.93,3402.75C2106.7,3467.01 2104.6,3520.09 2104.6,3550.52C2104.6,3630.28 2146.15,3662.22 2177.96,3694.39C2210.03,3726.81 2234.77,3759.76 2234.77,3811.99C2234.77,3884.54 2193.82,3929.93 2140.76,3956.64C2094.49,3979.94 2038.63,3987.89 2000.01,3988.41C1962.76,3988.91 1907.11,3981.7 1860.71,3959.18C1807.4,3933.3 1766.1,3888.65 1766.1,3817.72C1766.1,3762.84 1790.67,3728.88 1822.18,3695.96C1854.04,3662.68 1895.76,3630.74 1896.27,3549.68C1896.4,3528.74 1893.82,3473.98 1889.93,3403.22C1770.58,3394.24 1655.36,3370.32 1546.19,3333.38C1537.82,3378.29 1554.88,3409.86 1566.62,3439.4C1581.95,3477.97 1590.78,3514.39 1572.24,3558.26C1546.45,3619.3 1496.05,3643.04 1442.08,3646.73C1395.62,3649.9 1346.62,3637.01 1314.49,3623.94C1283.48,3611.33 1239.95,3585.86 1209.45,3550.92C1173.94,3510.24 1155.28,3458 1180.51,3398.28C1199.95,3352.26 1232.41,3332.34 1270.41,3315.85C1300.02,3303 1334.59,3293.15 1361.44,3255.67C1261.48,3204.94 1168.39,3142.61 1083.93,3070.45C1037.28,3112.66 999.176,3147.89 978.013,3169.05C921.616,3225.45 928.408,3277.42 928.16,3322.66C927.911,3368.27 922.099,3409.05 885.172,3445.98C833.867,3497.29 772.82,3500.43 716.411,3481.8C667.214,3465.55 622.098,3431.68 594.421,3404.73C567.732,3378.75 533.473,3334.3 516.592,3285.56C497.194,3229.57 499.562,3168.8 549.719,3118.64C588.524,3079.83 629.914,3073.19 675.472,3072.2C721.528,3071.19 773.619,3078.11 831.298,3021.15C845.988,3006.64 882.073,2967 928.457,2915.24C855.747,2830.44 792.954,2736.87 741.893,2636.36C706.731,2662.53 697.242,2696.28 685.245,2724.97C669.348,2762.99 650.178,2794.94 606.539,2813.28C545.451,2838.96 492.792,2820.74 451.593,2785.69C416.13,2755.51 390.062,2712.07 376.192,2680.27C362.809,2649.59 349.448,2600.96 352.02,2554.65C355.016,2500.74 378.142,2450.32 437.909,2425.2C483.656,2405.97 520.615,2414.13 559.026,2428.68C588.678,2439.92 619.634,2456.84 663.601,2450.08C627.203,2342.28 603.527,2228.63 594.379,2110.95C531.812,2107.83 480.186,2105.8 450.349,2105.8C370.591,2105.8 338.644,2147.36 306.48,2179.17C274.056,2211.24 241.105,2235.97 188.881,2235.97C116.325,2235.97 70.937,2195.03 44.222,2141.97C20.923,2095.69 12.976,2039.84 12.458,2001.21C11.959,1963.97 19.167,1908.31 41.689,1861.92C67.569,1808.6 112.214,1767.31 183.147,1767.31C238.025,1767.31 271.988,1791.88 304.905,1823.39C338.183,1855.25 370.129,1896.97 451.189,1897.48C471.783,1897.61 525.118,1895.11 594.27,1891.32C603.296,1773.71 626.821,1660.15 663.054,1552.4C619.081,1544.78 587.951,1561.81 558.79,1573.51C520.284,1588.97 483.903,1597.83 440.199,1579.37C379.325,1553.65 355.686,1503.16 352.151,1449.01C349.114,1402.5 362.082,1353.4 375.186,1321.19C387.83,1290.11 413.32,1246.46 448.203,1215.83C488.912,1180.09 541.138,1161.3 600.693,1186.45C646.476,1205.8 666.346,1238.18 682.677,1276.13C695.285,1305.43 704.806,1339.66 740.949,1366.37C792.683,1264.18 856.526,1169.13 930.573,1083.16C892.338,1041.02 860.55,1006.75 840.897,987.095C784.5,930.698 732.527,937.49 687.288,937.243C641.683,936.993 600.895,931.182 563.968,894.254C512.663,842.949 509.52,781.902 528.149,725.493C544.397,676.296 578.273,631.18 605.218,603.503C631.202,576.814 675.653,542.555 724.386,525.674C780.383,506.276 841.153,508.644 891.31,558.801C930.115,597.606 936.755,638.997 937.749,684.554C938.754,730.611 931.842,782.701 988.8,840.38C1002.42,854.172 1038.21,886.839 1085.39,929.176C1168.85,858.065 1260.72,796.537 1359.26,746.3C1332.87,707.261 1297.53,697.428 1267.59,685.082C1229.15,669.232 1196.85,650.178 1178.44,606.37C1152.84,545.449 1171.18,492.805 1206.47,451.58C1236.78,416.174 1280.35,390.09 1312.23,376.19C1342.98,362.778 1391.71,349.341 1438.07,351.781C1492.17,354.629 1542.67,377.657 1567.72,437.258C1587.05,483.236 1578.52,520.385 1563.61,559.1C1551.81,589.75 1534.16,621.912 1543.27,668.478C1653.63,630.85 1770.18,606.56 1890.97,597.566Z" style="fill:rgb(104,162,54);"/>
        </g>
        <g transform="matrix(0.596053,8.32667e-17,-8.32667e-17,0.596053,807.636,790.149)">
            <path d="M1850.29,558.475C1852.44,512.122 1853.77,474.183 1853.77,450.349C1853.77,386.483 1818.16,362.122 1792.69,336.367C1752.69,295.932 1723.6,254.008 1723.6,188.881C1723.6,97.578 1774.22,39.879 1840.99,6.262C1893.39,-20.119 1956.56,-29.452 2000.29,-30.038C2042.66,-30.606 2105.93,-22.167 2158.72,3.456C2226.16,36.193 2277.27,93.418 2277.27,183.147C2277.27,250.977 2248.33,293.608 2209.38,334.294C2183.61,361.223 2147.51,385.861 2147.1,451.456C2146.99,468.307 2148.71,507.464 2151.45,559.294C2239.53,568.635 2325.27,585.893 2407.91,610.339C2403.87,599.05 2398.68,588.784 2394.68,578.736C2375.2,529.725 2365.86,483.369 2389.41,427.635C2422.49,349.326 2486.59,318.033 2555.83,313.305C2609.14,309.664 2665.44,324.123 2702.32,339.122C2738.09,353.671 2788.17,383.255 2823.36,423.563C2869.17,476.04 2891.99,543.656 2859.44,620.69C2834.96,678.641 2795.12,704.831 2747.28,725.585C2736.32,730.339 2724.25,734.182 2712.33,739.974C2782.45,779.873 2848.91,825.452 2911.08,876.09C2946.67,843.691 2975.49,816.851 2992.8,799.54C3037.96,754.38 3030.01,711.975 3030.21,675.751C3030.52,618.878 3039.59,568.662 3085.64,522.61C3150.2,458.049 3226.8,453.045 3297.78,476.488C3353.49,494.885 3404.75,532.952 3436.09,563.461C3466.46,593.022 3505.23,643.727 3524.43,699.169C3548.97,770.004 3544.65,846.609 3481.2,910.057C3433.24,958.02 3382.63,967.705 3326.32,968.934C3289.05,969.747 3246.11,961.644 3199.43,1007.74C3187.18,1019.83 3159.81,1049.74 3123.96,1089.62C3175.16,1152.85 3221.13,1220.47 3261.23,1291.85C3267.51,1279.42 3271.35,1266.69 3276.11,1255.28C3296.39,1206.59 3322.08,1166.89 3377.86,1143.45C3456.23,1110.51 3523.96,1132.88 3576.82,1177.85C3617.52,1212.49 3647.71,1262.15 3663.63,1298.64C3679.07,1334.04 3694.25,1390.19 3691.28,1443.62C3687.42,1513.17 3656.52,1577.49 3579.43,1609.89C3521.43,1634.27 3474.62,1625.19 3425.89,1606.63C3413.78,1602.02 3401.47,1595.72 3387.59,1591.47C3412.04,1674.59 3429.23,1760.82 3438.41,1849.44C3486.57,1851.7 3526,1853.1 3550.52,1853.1C3614.38,1853.1 3638.74,1817.5 3664.5,1792.02C3704.93,1752.03 3746.86,1722.93 3811.99,1722.93C3903.29,1722.93 3960.99,1773.56 3994.6,1840.33C4020.99,1892.72 4030.32,1955.89 4030.9,1999.62C4031.47,2042 4023.03,2105.27 3997.41,2158.05C3964.67,2225.49 3907.45,2276.6 3817.72,2276.6C3749.89,2276.6 3707.26,2247.67 3666.57,2208.72C3639.64,2182.94 3615.01,2146.84 3549.41,2146.43C3532.23,2146.32 3491.86,2148.11 3438.46,2150.95C3429.06,2242.06 3411.18,2330.68 3385.63,2416.02C3398.43,2411.81 3409.85,2405.82 3421,2401.34C3470.07,2381.63 3516.48,2372.18 3572.16,2395.7C3650.31,2428.71 3681.54,2492.92 3686.08,2562.44C3689.56,2615.76 3675.03,2672.11 3660,2709.04C3645.43,2744.86 3615.86,2795.02 3575.66,2830.32C3523.12,2876.46 3455.46,2899.39 3378.59,2866.91C3320.7,2842.45 3294.55,2802.5 3273.92,2754.46C3268.67,2742.24 3264.57,2728.6 3257.65,2715.34C3218.51,2784.19 3173.89,2849.53 3124.37,2910.74C3156.45,2945.97 3183.03,2974.5 3200.22,2991.69C3245.38,3036.85 3287.78,3028.9 3324,3029.1C3380.88,3029.41 3431.09,3038.48 3477.14,3084.53C3541.71,3149.09 3546.71,3225.69 3523.27,3296.67C3504.87,3352.38 3466.8,3403.64 3436.29,3434.98C3406.73,3465.35 3356.03,3504.12 3300.59,3523.32C3229.75,3547.86 3153.14,3543.54 3089.7,3480.09C3041.74,3432.12 3032.05,3381.52 3030.82,3325.21C3030.01,3287.94 3038.11,3244.99 2992.02,3198.32C2980.08,3186.23 2950.79,3159.41 2911.7,3124.26C2847.58,3176.54 2778.91,3223.44 2706.35,3264.28C2717.08,3269.09 2727.87,3272.44 2737.69,3276.49C2786.58,3296.65 2826.39,3322.31 2849.82,3378.03C2882.68,3456.24 2860.19,3524 2814.89,3576.92C2780.14,3617.52 2730.38,3647.7 2693.84,3663.63C2658.4,3679.09 2602.2,3694.34 2548.77,3691.53C2478.94,3687.85 2414.51,3657 2382.17,3580.08C2357.82,3522.14 2367.02,3475.28 2385.8,3426.49C2389.93,3415.78 2395.39,3404.92 2399.57,3392.96C2319.21,3416.2 2236.01,3432.65 2150.61,3441.66C2148.44,3488.35 2147.1,3526.56 2147.1,3550.52C2147.1,3614.38 2182.7,3638.74 2208.18,3664.5C2248.18,3704.93 2277.27,3746.86 2277.27,3811.99C2277.27,3903.29 2226.64,3960.99 2159.87,3994.6C2107.48,4020.99 2044.31,4030.32 2000.58,4030.9C1958.2,4031.47 1894.93,4023.03 1842.15,3997.41C1774.71,3964.67 1723.6,3907.45 1723.6,3817.72C1723.6,3749.89 1752.54,3707.26 1791.48,3666.57C1817.26,3639.64 1853.36,3615.01 1853.77,3549.41C1853.88,3532.64 1852.17,3493.78 1849.45,3442.3C1761.43,3433.4 1675.72,3416.6 1593.08,3392.62C1597.09,3403.7 1602.18,3413.81 1606.11,3423.7C1625.6,3472.71 1634.94,3519.07 1611.39,3574.8C1578.31,3653.11 1514.21,3684.4 1444.97,3689.13C1391.65,3692.77 1335.36,3678.31 1298.48,3663.31C1262.71,3648.76 1212.63,3619.18 1177.44,3578.87C1131.63,3526.39 1108.81,3458.78 1141.36,3381.74C1165.84,3323.81 1205.67,3297.62 1253.49,3276.86C1263.76,3272.41 1275,3268.75 1286.18,3263.57C1215.26,3223.56 1148.04,3177.75 1085.17,3126.76C1051.7,3157.28 1024.62,3182.55 1008.07,3199.1C962.905,3244.26 970.858,3286.67 970.66,3322.89C970.349,3379.77 961.275,3429.98 915.224,3476.03C850.662,3540.59 774.067,3545.6 703.083,3522.16C647.379,3503.76 596.112,3465.69 564.774,3435.18C534.41,3405.62 495.639,3354.92 476.433,3299.47C451.895,3228.64 456.219,3152.03 519.667,3088.59C567.63,3040.62 618.235,3030.94 674.544,3029.71C711.814,3028.9 754.761,3037 801.435,2990.91C813.146,2979.35 838.678,2951.49 872.235,2914.21C821.186,2851.49 775.288,2784.43 735.183,2713.66C731.177,2723.19 728.097,2732.66 724.455,2741.37C704.238,2789.72 678.506,2829.14 623.007,2852.46C544.636,2885.4 476.906,2863.03 424.052,2818.06C383.35,2783.43 353.156,2733.76 337.237,2697.26C321.797,2661.87 306.618,2605.72 309.586,2552.3C313.45,2482.74 344.347,2418.42 421.442,2386.02C479.084,2361.79 525.689,2370.6 574.089,2388.94C583.675,2392.58 593.359,2397.29 603.827,2401.24C580.656,2320.69 564.29,2237.27 555.411,2151.64C510.449,2149.57 473.653,2148.3 450.349,2148.3C386.483,2148.3 362.122,2183.91 336.367,2209.39C295.932,2249.38 254.008,2278.47 188.881,2278.47C97.578,2278.47 39.879,2227.85 6.262,2161.08C-20.119,2108.68 -29.452,2045.52 -30.038,2001.78C-30.606,1959.41 -22.167,1896.14 3.456,1843.36C36.193,1775.92 93.418,1724.81 183.147,1724.81C250.977,1724.81 293.608,1753.74 334.294,1792.69C361.223,1818.47 385.861,1854.57 451.456,1854.98C467.858,1855.08 505.408,1853.45 555.243,1850.84C564.053,1764.97 580.383,1681.32 603.559,1600.56C593.314,1604.48 583.88,1609.24 574.623,1612.95C525.633,1632.62 479.263,1642.01 423.659,1618.52C345.515,1585.5 314.28,1521.3 309.741,1451.78C306.259,1398.46 320.796,1342.11 335.819,1305.18C350.39,1269.36 379.961,1219.2 420.16,1183.9C472.704,1137.76 540.364,1114.83 617.233,1147.31C674.954,1171.69 701.127,1211.49 721.716,1259.33C725.825,1268.88 729.216,1279.28 733.785,1289.69C774.717,1217.13 821.73,1148.44 874.13,1084.34C847.669,1055.44 825.727,1032.03 810.845,1017.15C765.685,971.987 723.281,979.94 687.056,979.742C630.183,979.431 579.967,970.357 533.915,924.306C469.354,859.745 464.351,783.15 487.793,712.166C506.19,656.461 544.257,605.194 574.766,573.856C604.327,543.493 655.032,504.721 710.474,485.515C781.309,460.978 857.915,465.301 921.362,528.749C969.326,576.712 979.01,627.317 980.239,683.627C981.053,720.896 972.95,763.843 1019.04,810.518C1029.62,821.235 1053.88,843.553 1086.53,873.011C1148.76,822.675 1215.24,777.39 1285.33,737.789C1273.74,732.315 1262,728.748 1251.39,724.372C1202.5,704.212 1162.68,678.559 1139.26,622.838C1106.39,544.632 1128.88,476.863 1174.18,423.942C1208.93,383.349 1258.69,353.17 1295.24,337.233C1330.68,321.777 1386.88,306.527 1440.3,309.34C1510.13,313.016 1574.57,343.862 1606.9,420.791C1631.25,478.728 1622.06,525.586 1603.27,574.371C1598.98,585.531 1593.22,596.851 1589,609.426C1673.17,584.737 1760.53,567.495 1850.29,558.475ZM1894.12,639.949C1915.5,638.357 1932.34,621.099 1933.41,599.693C1936.67,534.769 1938.77,481.13 1938.77,450.349C1938.77,354.677 1891.28,315.174 1853.12,276.593C1828.96,252.172 1808.6,228.215 1808.6,188.881C1808.6,135.07 1839.86,101.996 1879.22,82.183C1919.37,61.965 1967.91,55.404 2001.43,54.954C2033.55,54.524 2081.59,60.501 2121.6,79.922C2160.79,98.946 2192.27,131.005 2192.27,183.147C2192.27,225.082 2172.06,250.362 2147.98,275.516C2110.04,315.151 2062.7,354.374 2062.1,450.921C2061.96,472.28 2064.56,528.24 2068.53,600.527C2069.7,621.757 2086.37,638.858 2107.57,640.559C2223.26,649.844 2334.89,673.602 2440.62,710.007C2452.26,714.017 2465.07,712.777 2475.74,706.609C2486.4,700.441 2493.86,689.951 2496.18,677.856C2506.81,622.638 2488.06,583.536 2473.67,547.339C2462.49,519.192 2454.18,492.723 2467.7,460.715C2486.2,416.94 2522.91,400.75 2561.62,398.108C2601.21,395.404 2642.91,406.721 2670.3,417.859C2696.54,428.532 2733.51,449.893 2759.33,479.463C2784.55,508.352 2799.06,545.201 2781.14,587.611C2766.72,621.744 2741.62,635.383 2713.45,647.607C2677.2,663.333 2636.06,677.179 2603.46,723.93C2596.45,733.991 2594.12,746.592 2597.08,758.494C2600.04,770.397 2608,780.44 2618.91,786.043C2714.58,835.177 2803.69,895.286 2884.56,964.695C2900.8,978.632 2924.87,978.322 2940.74,963.972C2990.22,919.248 3030.72,881.824 3052.91,859.644C3120.56,791.994 3114.91,730.481 3115.2,676.216C3115.39,641.867 3117.93,610.527 3145.75,582.714C3183.8,544.664 3229.29,543.384 3271.13,557.2C3313.82,571.299 3352.78,600.984 3376.8,624.365C3399.81,646.771 3429.56,684.969 3444.12,726.992C3458.38,768.155 3457.97,813.083 3421.1,849.953C3391.44,879.606 3359.28,883.195 3324.47,883.954C3269.61,885.151 3208.41,879.415 3139.71,947.254C3124.27,962.497 3085.59,1004.97 3036.16,1060.17C3021.97,1076.02 3021.68,1099.91 3035.48,1116.1C3104.97,1197.59 3165.04,1287.36 3214,1383.73C3219.47,1394.5 3229.26,1402.43 3240.93,1405.54C3252.59,1408.66 3265.03,1406.66 3275.14,1400.06C3324.85,1367.58 3339.11,1325.06 3354.57,1287.97C3366.22,1260.01 3378.76,1235.27 3410.79,1221.81C3454.6,1203.39 3492.19,1217.45 3521.73,1242.59C3551.96,1268.31 3573.9,1305.53 3585.72,1332.63C3597.05,1358.6 3608.59,1399.71 3606.41,1438.9C3604.28,1477.19 3588.93,1513.7 3546.49,1531.53C3512.33,1545.89 3484.84,1538.13 3456.14,1527.2C3418.34,1512.8 3378.27,1493.42 3320.18,1505.8C3308.31,1508.33 3298.08,1515.82 3292.08,1526.38C3286.09,1536.95 3284.9,1549.57 3288.81,1561.06C3324.75,1666.61 3348.1,1777.99 3357.06,1893.4C3358.71,1914.71 3375.94,1931.48 3397.29,1932.56C3463.96,1935.92 3519.13,1938.1 3550.52,1938.1C3646.19,1938.1 3685.69,1890.62 3724.27,1852.45C3748.69,1828.3 3772.65,1807.93 3811.99,1807.93C3865.8,1807.93 3898.87,1839.2 3918.68,1878.55C3938.9,1918.71 3945.46,1967.25 3945.91,2000.76C3946.34,2032.88 3940.37,2080.92 3920.94,2120.93C3901.92,2160.12 3869.86,2191.6 3817.72,2191.6C3775.78,2191.6 3750.5,2171.4 3725.35,2147.32C3685.72,2109.38 3646.49,2062.04 3549.95,2061.43C3528.28,2061.3 3470.99,2063.97 3397.11,2068.04C3375.84,2069.21 3358.72,2085.96 3357.08,2107.2C3347.95,2225.19 3323.77,2338.99 3286.45,2446.69C3282.47,2458.16 3283.59,2470.78 3289.52,2481.37C3295.45,2491.96 3305.62,2499.51 3317.48,2502.11C3375.16,2514.79 3415.45,2495.18 3452.69,2480.22C3480.79,2468.93 3507.2,2460.53 3539.08,2474C3582.69,2492.42 3598.73,2529.18 3601.26,2567.97C3603.85,2607.67 3592.45,2649.52 3581.27,2677.01C3570.55,2703.35 3549.14,2740.49 3519.58,2766.45C3490.7,2791.81 3453.91,2806.46 3411.67,2788.61C3377.67,2774.25 3364.14,2749.13 3352.02,2720.92C3335.94,2683.46 3321.88,2640.79 3271.71,2607.79C3261.64,2601.16 3249.22,2599.13 3237.56,2602.19C3225.9,2605.25 3216.09,2613.12 3210.57,2623.84C3162.31,2717.52 3103.52,2804.92 3035.76,2884.44C3021.91,2900.69 3022.27,2924.68 3036.58,2940.51C3080.94,2989.57 3118.06,3029.74 3140.11,3051.79C3207.76,3119.44 3269.27,3113.8 3323.54,3114.09C3357.89,3114.28 3389.23,3116.82 3417.04,3144.64C3455.09,3182.69 3456.37,3228.18 3442.55,3270.02C3428.46,3312.71 3398.77,3351.67 3375.39,3375.69C3352.98,3398.7 3314.79,3428.45 3272.76,3443C3231.6,3457.26 3186.67,3456.85 3149.8,3419.98C3120.15,3390.33 3116.56,3358.17 3115.8,3323.36C3114.6,3268.5 3120.34,3207.29 3052.5,3138.6C3037.39,3123.29 2995.52,3085.15 2941.05,3036.36C2925.17,3022.13 2901.19,3021.88 2885.01,3035.78C2802.02,3107.07 2710.36,3168.55 2611.83,3218.44C2600.84,3224 2592.8,3234.06 2589.8,3246.01C2586.8,3257.95 2589.14,3270.62 2596.2,3280.71C2628.23,3326.52 2669.33,3340.25 2705.28,3355.07C2733.28,3366.62 2758.04,3379.06 2771.45,3410.96C2789.8,3454.6 2775.6,3492.12 2750.32,3521.65C2724.45,3551.87 2687.07,3573.86 2659.86,3585.72C2633.79,3597.09 2592.53,3608.71 2553.24,3606.64C2514.86,3604.62 2478.3,3589.42 2460.53,3547.14C2446.23,3513.12 2454.09,3485.69 2465.12,3457.04C2479.24,3420.37 2498.1,3381.51 2487.9,3326.18C2485.67,3314.05 2478.28,3303.49 2467.65,3297.24C2457.02,3290.99 2444.21,3289.67 2432.53,3293.61C2328.84,3328.57 2219.63,3351.39 2106.55,3360.39C2085.27,3362.08 2068.55,3379.3 2067.48,3400.62C2064.21,3465.8 2062.1,3519.65 2062.1,3550.52C2062.1,3646.19 2109.59,3685.69 2147.75,3724.27C2171.9,3748.69 2192.27,3772.65 2192.27,3811.99C2192.27,3865.8 2161,3898.87 2121.65,3918.68C2081.49,3938.9 2032.95,3945.46 1999.44,3945.91C1967.32,3946.34 1919.28,3940.37 1879.27,3920.94C1840.08,3901.92 1808.6,3869.86 1808.6,3817.72C1808.6,3775.78 1828.81,3750.5 1852.88,3725.35C1890.83,3685.72 1938.16,3646.49 1938.77,3549.95C1938.9,3528.64 1936.32,3472.91 1932.37,3400.89C1931.2,3379.58 1914.4,3362.44 1893.12,3360.84C1777.4,3352.13 1665.67,3328.94 1559.82,3293.12C1548.15,3289.17 1535.34,3290.48 1524.71,3296.71C1514.08,3302.94 1506.67,3313.47 1504.42,3325.58C1494.21,3380.28 1512.83,3419.12 1527.12,3455.1C1538.31,3483.24 1546.62,3509.71 1533.09,3541.72C1514.6,3585.49 1477.88,3601.68 1439.18,3604.33C1399.59,3607.03 1357.89,3595.71 1330.5,3584.58C1304.26,3573.9 1267.28,3552.54 1241.47,3522.97C1216.25,3494.08 1201.74,3457.23 1219.66,3414.82C1234.07,3380.7 1259.16,3367.06 1287.33,3354.84C1323.07,3339.33 1363.59,3325.65 1395.99,3280.42C1403.2,3270.35 1405.66,3257.62 1402.72,3245.58C1399.78,3233.54 1391.73,3223.39 1380.67,3217.78C1283.73,3168.57 1193.45,3108.12 1111.54,3038.14C1095.29,3024.25 1071.26,3024.6 1055.41,3038.94C1008.08,3081.77 969.434,3117.53 947.961,3139C880.31,3206.65 885.958,3268.16 885.661,3322.43C885.473,3356.78 882.932,3388.12 855.12,3415.93C817.069,3453.98 771.575,3455.26 729.739,3441.44C687.049,3427.35 648.084,3397.66 624.067,3374.28C601.053,3351.87 571.308,3313.67 556.751,3271.65C542.491,3230.49 542.901,3185.56 579.771,3148.69C609.423,3119.04 641.587,3115.45 676.399,3114.69C731.255,3113.49 792.462,3119.23 861.16,3051.39C876.115,3036.62 912.887,2996.3 960.108,2943.61C974.337,2927.73 974.599,2903.77 960.722,2887.58C890.205,2805.33 829.305,2714.59 779.784,2617.11C774.11,2605.94 763.798,2597.84 751.602,2594.98C739.406,2592.12 726.568,2594.78 716.519,2602.26C673.873,2634 660.584,2673.78 646.034,2708.58C634.455,2736.27 621.86,2760.74 590.072,2774.1C546.263,2792.51 508.68,2778.46 479.135,2753.32C448.91,2727.6 426.968,2690.38 415.147,2663.28C403.821,2637.31 392.278,2596.2 394.455,2557.01C396.582,2518.72 411.933,2482.21 454.376,2464.38C488.235,2450.14 515.535,2457.65 543.964,2468.43C579.604,2481.93 617.214,2500.21 670.06,2492.09C682.466,2490.18 693.394,2482.88 699.915,2472.16C706.436,2461.43 707.882,2448.38 703.867,2436.48C668.576,2331.96 645.621,2221.76 636.751,2107.65C635.094,2086.33 617.853,2069.56 596.494,2068.5C533.009,2065.34 480.624,2063.3 450.349,2063.3C354.677,2063.3 315.174,2110.79 276.593,2148.95C252.172,2173.11 228.215,2193.47 188.881,2193.47C135.07,2193.47 101.996,2162.21 82.183,2122.86C61.965,2082.7 55.404,2034.16 54.954,2000.64C54.524,1968.53 60.501,1920.48 79.922,1880.48C98.946,1841.29 131.005,1809.81 183.147,1809.81C225.082,1809.81 250.362,1830.01 275.516,1854.09C315.151,1892.03 354.374,1939.37 450.921,1939.98C471.888,1940.11 526.19,1937.61 596.593,1933.76C617.883,1932.59 635.014,1915.83 636.645,1894.57C645.398,1780.54 668.205,1670.42 703.338,1565.95C707.291,1554.19 705.912,1541.3 699.563,1530.64C693.214,1519.99 682.528,1512.64 670.308,1510.52C616.774,1501.25 578.458,1519.82 542.956,1534.07C514.925,1545.33 488.554,1553.66 456.739,1540.22C413.133,1521.8 397.093,1485.03 394.56,1446.24C391.968,1406.55 403.369,1364.7 414.553,1337.21C425.27,1310.87 446.679,1273.73 476.246,1247.77C505.123,1222.41 541.907,1207.76 584.153,1225.61C618.005,1239.91 631.563,1264.87 643.638,1292.93C658.839,1328.26 672.113,1368.35 715.69,1400.55C725.753,1407.99 738.582,1410.61 750.757,1407.73C762.932,1404.84 773.216,1396.73 778.867,1385.57C829.041,1286.45 890.961,1194.28 962.775,1110.9C976.777,1094.64 976.466,1070.5 962.048,1054.61C923.213,1011.8 890.911,977.005 870.949,957.043C803.299,889.393 741.786,895.04 687.521,894.743C653.172,894.555 621.832,892.015 594.02,864.202C555.969,826.151 554.689,780.657 568.506,738.821C582.604,696.131 612.289,657.166 635.67,633.15C658.076,610.135 696.274,580.39 738.297,565.833C779.46,551.574 824.388,551.983 861.258,588.853C890.911,618.505 894.5,650.669 895.259,685.481C896.457,740.337 890.72,801.544 958.559,870.242C972.445,884.304 1008.91,917.642 1057,960.805C1072.84,975.02 1096.75,975.328 1112.95,961.527C1193.9,892.561 1283,832.886 1378.56,784.163C1389.41,778.631 1397.37,768.709 1400.41,756.916C1403.45,745.122 1401.29,732.59 1394.47,722.499C1362.23,674.808 1320.36,660.874 1283.79,645.792C1255.8,634.248 1231.03,621.809 1217.62,589.903C1199.28,546.263 1213.48,508.749 1238.76,479.218C1264.62,448.998 1302.01,427.01 1329.21,415.146C1355.28,403.778 1396.54,392.154 1435.83,394.222C1474.21,396.243 1510.77,411.446 1528.54,453.725C1542.84,487.751 1534.98,515.177 1523.95,543.828C1509.66,580.934 1490.53,620.266 1501.56,676.638C1503.92,688.682 1511.36,699.119 1521.99,705.265C1532.61,711.41 1545.37,712.664 1556.98,708.704C1664,672.219 1777.01,648.669 1894.12,639.949Z" style="fill:rgb(105,163,53);"/>
        </g>
        <g id="Virus-12" transform="matrix(0.596053,8.32667e-17,-8.32667e-17,0.596053,807.636,790.149)">
            <path d="M1927.18,633.36C1931.39,553.46 1934.27,486.279 1934.27,450.349C1934.27,293.705 1804.1,290.624 1804.1,188.881C1804.1,77.289 1933.26,51.368 2001.37,50.455C2066.69,49.579 2196.77,74.884 2196.77,183.147C2196.77,291.409 2067.59,292.772 2066.6,450.95C2066.44,475.446 2069.91,545.661 2074.86,633.799C2216.26,641.747 2351.95,671.202 2478.64,718.927C2478.85,718.435 2479.07,717.937 2479.27,717.446C2533.36,589.418 2428.43,542.119 2463.56,458.964C2502.09,367.758 2616.22,391.005 2671.99,413.691C2725.49,435.447 2822.67,500.878 2785.29,589.362C2747.9,677.846 2642.25,634.521 2586.82,763.459C2586.63,763.895 2586.44,764.35 2586.24,764.817C2705.59,821.892 2815.41,895.76 2912.57,983.32C2973.26,928.728 3023.93,882.256 3049.72,856.462C3160.49,745.698 3070.62,651.475 3142.57,579.532C3221.47,500.625 3331.13,573.624 3379.94,621.141C3426.74,666.71 3500.83,776.582 3424.28,853.135C3347.72,929.688 3255.42,839.311 3142.87,950.456C3125.21,967.892 3077.01,1021.13 3017.09,1088.19C3104.44,1185.79 3178.01,1295.98 3234.72,1415.72C3236.48,1415 3238.16,1414.3 3239.77,1413.63C3367.89,1359.78 3325.83,1252.64 3409.05,1217.66C3500.33,1179.3 3565.77,1275.64 3589.84,1330.83C3612.93,1383.76 3636.79,1498.46 3548.23,1535.68C3459.68,1572.9 3414.32,1468.1 3284.6,1521.67C3283.29,1522.21 3281.83,1522.83 3280.22,1523.53C3327.29,1649.99 3356.2,1785.32 3363.74,1926.32C3445.3,1930.63 3514.03,1933.6 3550.52,1933.6C3707.16,1933.6 3710.24,1803.43 3811.99,1803.43C3923.58,1803.43 3949.5,1932.59 3950.41,2000.7C3951.29,2066.02 3925.98,2196.1 3817.72,2196.1C3709.46,2196.1 3708.09,2066.93 3549.92,2065.93C3525.12,2065.78 3453.47,2069.33 3363.75,2074.38C3356.11,2217.88 3326.31,2355.54 3277.7,2484.04C3279.55,2484.84 3281.3,2485.59 3282.97,2486.29C3410.53,2540.18 3457.99,2434.85 3540.83,2469.85C3631.7,2508.24 3608.21,2622.72 3585.44,2678.71C3563.59,2732.39 3498.07,2830 3409.92,2792.76C3321.76,2755.51 3365.25,2649.47 3236.79,2594.24C3235.24,2593.57 3233.45,2592.82 3231.45,2592.01C3175.23,2708.99 3102.89,2816.76 3017.31,2912.43C3071.5,2972.67 3117.63,3022.95 3143.29,3048.61C3254.06,3159.38 3348.28,3069.51 3420.22,3141.45C3499.13,3220.36 3426.13,3330.02 3378.61,3378.83C3333.05,3425.63 3223.17,3499.72 3146.62,3423.17C3070.07,3346.61 3160.44,3254.31 3049.3,3141.76C3031.98,3124.22 2979.34,3076.55 2912.94,3017.21C2813.69,3106.7 2701.29,3181.88 2578.99,3239.49C2579.19,3239.97 2579.38,3240.43 2579.58,3240.89C2633.23,3368.55 2740.76,3326.31 2775.6,3409.22C2813.82,3500.16 2717.06,3565.68 2661.66,3589.85C2608.53,3613.01 2493.47,3637.11 2456.39,3548.89C2419.3,3460.66 2524.5,3415.14 2471.13,3285.89C2471,3285.57 2470.86,3285.24 2470.72,3284.9C2345.87,3331.01 2212.53,3359.44 2073.7,3367.13C2069.48,3447.21 2066.6,3514.53 2066.6,3550.52C2066.6,3707.16 2196.77,3710.24 2196.77,3811.99C2196.77,3923.58 2067.61,3949.5 1999.5,3950.41C1934.18,3951.29 1804.1,3925.98 1804.1,3817.72C1804.1,3709.46 1933.28,3708.09 1934.27,3549.92C1934.42,3525.45 1930.96,3455.4 1926.03,3367.45C1784.54,3360.21 1648.69,3331.45 1521.77,3284.41L1521.53,3284.99C1467.44,3413.02 1572.37,3460.32 1537.24,3543.47C1498.71,3634.68 1384.58,3611.43 1328.81,3588.74C1275.31,3566.99 1178.13,3501.56 1215.51,3413.07C1252.88,3324.62 1358.49,3367.89 1413.93,3239.08C1293.09,3182.05 1181.9,3107.85 1083.53,3019.62C1024.95,3072.35 976.257,3117.07 951.143,3142.18C840.379,3252.95 930.245,3347.17 858.302,3419.11C779.394,3498.02 669.736,3425.02 620.928,3377.5C574.121,3331.93 500.036,3222.06 576.589,3145.51C653.142,3068.96 745.446,3159.33 857.998,3048.19C875.209,3031.19 921.438,2980.18 979.252,2915.51C890.373,2816.76 815.648,2705.01 758.292,2583.49C633.587,2637.72 674.421,2743.53 591.816,2778.25C500.539,2816.61 435.098,2720.27 411.023,2665.08C387.934,2612.15 364.079,2497.45 452.632,2460.23C540.424,2423.33 585.761,2526.02 712.93,2475.59C666.246,2349.64 637.577,2214.97 630.062,2074.72C551.619,2070.6 485.785,2067.8 450.349,2067.8C293.705,2067.8 290.624,2197.97 188.881,2197.97C77.289,2197.97 51.368,2068.82 50.455,2000.7C49.579,1935.38 74.884,1805.31 183.147,1805.31C291.409,1805.31 292.772,1934.48 450.95,1935.48C475.087,1935.63 543.61,1932.26 629.993,1927.43C637.353,1787.59 665.744,1653.28 712.071,1527.6C585.102,1474.46 537.67,1579.3 454.988,1544.36C364.119,1505.97 387.609,1391.49 410.385,1335.51C432.227,1281.82 497.748,1184.21 585.905,1221.46C673.691,1258.55 630.931,1363.86 757.401,1419.27C815.374,1295.98 891.201,1182.71 981.524,1082.83C932.65,1028.65 891.474,983.932 867.767,960.225C757.003,849.461 662.781,939.327 590.838,867.384C511.93,788.476 584.929,678.818 632.446,630.011C678.015,583.204 787.887,509.118 864.44,585.671C940.993,662.224 850.616,754.528 961.761,867.081C977.923,883.447 1024.84,926.052 1085.02,979.913C1182.2,893.017 1291.83,819.783 1410.86,763.241C1410.4,762.119 1409.94,761.029 1409.5,759.974C1355.85,632.32 1248.32,674.56 1213.47,591.647C1175.25,500.707 1272.02,435.181 1327.42,411.022C1380.55,387.853 1495.61,363.756 1532.69,451.982C1569.77,540.208 1464.58,585.726 1517.94,714.972C1518.27,715.757 1518.62,716.598 1519,717.485C1647.06,669.697 1784.24,640.545 1927.18,633.36Z" style="fill:rgb(128,195,65);"/>
        </g>
    </g>
    <g transform="matrix(1.38515,0,0,0.952712,-675.451,1009.38)">
        <path d="M1286.41,1632.07L1156.04,1966.65C1156.04,1966.65 1325.31,2331.76 1706.76,2461.86C2090.57,2592.78 2473,2267.4 2473,2267.4L2568.59,1815.65L1286.41,1632.07Z" style="fill:url(#_Linear1);"/>
    </g>
    <g transform="matrix(1.95615,0,0,1.47671,-1933.43,-746.111)">
        <path d="M2450.56,2289.94C2450.56,2197.41 2387.48,2122.29 2309.78,2122.29L1711.41,2122.29C1633.72,2122.29 1570.64,2197.41 1570.64,2289.94C1570.64,2382.47 1633.72,2457.59 1711.41,2457.59L2309.78,2457.59C2387.48,2457.59 2450.56,2382.47 2450.56,2289.94Z" style="fill:rgb(133,0,0);"/>
    </g>
    <g transform="matrix(1.71648,0,0,1.71643,-1432.11,-1423.8)">
        <g transform="matrix(1,0,0,1,39.381,-23.6094)">
            <path d="M1950.44,2270.33C1950.44,2255.97 1938.79,2244.32 1924.44,2244.32L1872.42,2244.32C1858.07,2244.32 1846.42,2255.97 1846.42,2270.33L1846.42,2338.71C1846.42,2353.06 1858.07,2364.71 1872.42,2364.71L1924.44,2364.71C1938.79,2364.71 1950.44,2353.06 1950.44,2338.71L1950.44,2270.33Z" style="fill:white;"/>
        </g>
        <g transform="matrix(1,0,0,1,166.037,-23.6094)">
            <path d="M1950.44,2270.33C1950.44,2255.97 1938.79,2244.32 1924.44,2244.32L1872.42,2244.32C1858.07,2244.32 1846.42,2255.97 1846.42,2270.33L1846.42,2338.71C1846.42,2353.06 1858.07,2364.71 1872.42,2364.71L1924.44,2364.71C1938.79,2364.71 1950.44,2353.06 1950.44,2338.71L1950.44,2270.33Z" style="fill:white;"/>
        </g>
        <g transform="matrix(1,0,0,1,290.795,-23.6094)">
            <path d="M1950.44,2270.33C1950.44,2255.97 1938.79,2244.32 1924.44,2244.32L1872.42,2244.32C1858.07,2244.32 1846.42,2255.97 1846.42,2270.33L1846.42,2338.71C1846.42,2353.06 1858.07,2364.71 1872.42,2364.71L1924.44,2364.71C1938.79,2364.71 1950.44,2353.06 1950.44,2338.71L1950.44,2270.33Z" style="fill:white;"/>
        </g>
        <g transform="matrix(1,0,0,1,417.451,-23.6094)">
            <path d="M1950.44,2270.33C1950.44,2255.97 1938.79,2244.32 1924.44,2244.32L1872.42,2244.32C1858.07,2244.32 1846.42,2255.97 1846.42,2270.33L1846.42,2338.71C1846.42,2353.06 1858.07,2364.71 1872.42,2364.71L1924.44,2364.71C1938.79,2364.71 1950.44,2353.06 1950.44,2338.71L1950.44,2270.33Z" style="fill:white;"/>
        </g>
        <g transform="matrix(1,0,0,1,-213.516,-23.6094)">
            <path d="M1950.44,2270.33C1950.44,2255.97 1938.79,2244.32 1924.44,2244.32L1872.42,2244.32C1858.07,2244.32 1846.42,2255.97 1846.42,2270.33L1846.42,2338.71C1846.42,2353.06 1858.07,2364.71 1872.42,2364.71L1924.44,2364.71C1938.79,2364.71 1950.44,2353.06 1950.44,2338.71L1950.44,2270.33Z" style="fill:white;"/>
        </g>
        <g transform="matrix(1,0,0,1,-86.8595,-23.6094)">
            <path d="M1950.44,2270.33C1950.44,2255.97 1938.79,2244.32 1924.44,2244.32L1872.42,2244.32C1858.07,2244.32 1846.42,2255.97 1846.42,2270.33L1846.42,2338.71C1846.42,2353.06 1858.07,2364.71 1872.42,2364.71L1924.44,2364.71C1938.79,2364.71 1950.44,2353.06 1950.44,2338.71L1950.44,2270.33Z" style="fill:white;"/>
        </g>
    </g>
    <g transform="matrix(1.71648,0,0,1.71643,-1432.11,-1135.3)">
        <g transform="matrix(1,0,0,1,39.381,-23.6094)">
            <path d="M1950.44,2270.33C1950.44,2255.97 1938.79,2244.32 1924.44,2244.32L1872.42,2244.32C1858.07,2244.32 1846.42,2255.97 1846.42,2270.33L1846.42,2338.71C1846.42,2353.06 1858.07,2364.71 1872.42,2364.71L1924.44,2364.71C1938.79,2364.71 1950.44,2353.06 1950.44,2338.71L1950.44,2270.33Z" style="fill:white;"/>
        </g>
        <g transform="matrix(1,0,0,1,166.037,-23.6094)">
            <path d="M1950.44,2270.33C1950.44,2255.97 1938.79,2244.32 1924.44,2244.32L1872.42,2244.32C1858.07,2244.32 1846.42,2255.97 1846.42,2270.33L1846.42,2338.71C1846.42,2353.06 1858.07,2364.71 1872.42,2364.71L1924.44,2364.71C1938.79,2364.71 1950.44,2353.06 1950.44,2338.71L1950.44,2270.33Z" style="fill:white;"/>
        </g>
        <g transform="matrix(1,0,0,1,290.795,-23.6094)">
            <path d="M1950.44,2270.33C1950.44,2255.97 1938.79,2244.32 1924.44,2244.32L1872.42,2244.32C1858.07,2244.32 1846.42,2255.97 1846.42,2270.33L1846.42,2338.71C1846.42,2353.06 1858.07,2364.71 1872.42,2364.71L1924.44,2364.71C1938.79,2364.71 1950.44,2353.06 1950.44,2338.71L1950.44,2270.33Z" style="fill:white;"/>
        </g>
        <g transform="matrix(1,0,0,1,417.451,-23.6094)">
            <path d="M1950.44,2270.33C1950.44,2255.97 1938.79,2244.32 1924.44,2244.32L1872.42,2244.32C1858.07,2244.32 1846.42,2255.97 1846.42,2270.33L1846.42,2338.71C1846.42,2353.06 1858.07,2364.71 1872.42,2364.71L1924.44,2364.71C1938.79,2364.71 1950.44,2353.06 1950.44,2338.71L1950.44,2270.33Z" style="fill:white;"/>
        </g>
        <g transform="matrix(1,0,0,1,-213.516,-23.6094)">
            <path d="M1950.44,2270.33C1950.44,2255.97 1938.79,2244.32 1924.44,2244.32L1872.42,2244.32C1858.07,2244.32 1846.42,2255.97 1846.42,2270.33L1846.42,2338.71C1846.42,2353.06 1858.07,2364.71 1872.42,2364.71L1924.44,2364.71C1938.79,2364.71 1950.44,2353.06 1950.44,2338.71L1950.44,2270.33Z" style="fill:white;"/>
        </g>
        <g transform="matrix(1,0,0,1,-86.8595,-23.6094)">
            <path d="M1950.44,2270.33C1950.44,2255.97 1938.79,2244.32 1924.44,2244.32L1872.42,2244.32C1858.07,2244.32 1846.42,2255.97 1846.42,2270.33L1846.42,2338.71C1846.42,2353.06 1858.07,2364.71 1872.42,2364.71L1924.44,2364.71C1938.79,2364.71 1950.44,2353.06 1950.44,2338.71L1950.44,2270.33Z" style="fill:white;"/>
        </g>
    </g>
    <g transform="matrix(2.0534,0,0,1.72418,-2127.72,-1313.22)">
        <path d="M2450.56,2289.94C2450.56,2197.41 2387.48,2122.29 2309.78,2122.29L1711.41,2122.29C1633.72,2122.29 1570.64,2197.41 1570.64,2289.94C1570.64,2382.47 1633.72,2457.59 1711.41,2457.59L2309.78,2457.59C2387.48,2457.59 2450.56,2382.47 2450.56,2289.94ZM2410.86,2289.94C2410.86,2356.37 2365.57,2410.31 2309.78,2410.31L1711.41,2410.31C1655.63,2410.31 1610.34,2356.37 1610.34,2289.94C1610.34,2223.51 1655.63,2169.57 1711.41,2169.57C1711.41,2169.57 2309.78,2169.57 2309.78,2169.57C2365.57,2169.57 2410.86,2223.51 2410.86,2289.94Z" style="fill:rgb(92,146,47);"/>
    </g>
    <g transform="matrix(2.01116,0,0,2.01109,-2023.91,-1842.02)">
        <path d="M1452.22,1632.07L1305.1,1935.22C1305.1,1935.22 1287.91,2280.28 1652.32,2500.89C2021.03,2724.1 2337.54,2512.61 2337.54,2512.61L2558.96,1833.74L1452.22,1632.07Z" style="fill:url(#_Linear2);"/>
    </g>
    <g transform="matrix(1.07724,0,0,1.07724,1202.41,1200.37)">
        <g transform="matrix(1.71648,0,0,1.71643,-529.691,-523.393)">
            <g>
                <g>
                    <path d="M434.723,844.698C276.066,844.698 146.916,715.62 146.916,556.879C146.916,398.191 276.041,269.072 434.723,269.072C593.4,269.072 722.458,398.235 722.458,556.879C722.458,715.62 593.4,844.698 434.723,844.698Z" style="fill:white;fill-rule:nonzero;"/>
                </g>
            </g>
        </g>
        <g transform="matrix(1.71648,0,0,1.71643,-529.691,-523.393)">
            <path d="M432.565,405.891C520.937,405.891 592.552,477.503 592.552,565.834C592.552,654.163 520.937,725.774 432.565,725.774C344.231,725.774 272.601,654.162 272.601,565.834C272.601,477.503 344.23,405.891 432.565,405.891Z" style="fill-rule:nonzero;"/>
            <path d="M473.213,473.724C495.735,473.724 513.994,491.997 513.994,514.5C513.994,536.979 495.735,555.325 473.213,555.325C450.707,555.325 432.419,536.979 432.419,514.5C432.419,491.998 450.708,473.724 473.213,473.724Z" style="fill:white;fill-rule:nonzero;"/>
        </g>
        <g transform="matrix(1.71648,0,0,1.71643,-529.691,-523.393)">
            <path d="M430.122,291.427C576.187,291.427 694.395,409.697 694.395,555.735C694.395,701.586 576.152,819.899 430.122,819.899C284.234,819.899 165.941,701.632 165.941,555.671C165.927,409.696 284.234,291.427 430.122,291.427M430.122,244.354C258.493,244.354 118.848,384.031 118.848,555.671C118.848,727.303 258.493,866.966 430.122,866.966C601.803,866.966 741.457,727.303 741.457,555.631C741.471,448.133 686.705,353.192 603.588,297.242C553.989,263.856 494.295,244.354 430.122,244.354Z" style="fill:rgb(92,146,47);fill-rule:nonzero;"/>
        </g>
        <g transform="matrix(1.71648,0,0,1.71643,-535.548,-523.393)">
            <g>
                <g>
                    <path d="M1051.61,844.698C892.948,844.698 763.857,715.62 763.857,556.879C763.857,398.235 892.907,269.072 1051.61,269.072C1210.28,269.072 1339.45,398.167 1339.45,556.879C1339.45,715.62 1210.28,844.698 1051.61,844.698Z" style="fill:white;fill-rule:nonzero;"/>
                </g>
            </g>
        </g>
        <g transform="matrix(1.71648,0,0,1.71643,-535.548,-523.393)">
            <path d="M1053.77,405.891C1142.13,405.891 1213.75,477.503 1213.75,565.834C1213.75,654.217 1142.13,725.827 1053.77,725.827C965.397,725.827 893.762,654.217 893.762,565.834C893.762,477.503 965.396,405.891 1053.77,405.891Z" style="fill-rule:nonzero;"/>
            <path d="M1013.11,473.724C1035.64,473.724 1053.92,491.936 1053.92,514.5C1053.92,536.979 1035.64,555.325 1013.11,555.325C990.597,555.325 972.321,536.979 972.321,514.5C972.321,491.937 990.598,473.724 1013.11,473.724Z" style="fill:white;fill-rule:nonzero;"/>
        </g>
        <g transform="matrix(1.71648,0,0,1.71643,-535.548,-523.393)">
            <path d="M1056.18,291.427C1202.08,291.427 1320.41,409.697 1320.37,555.671C1320.37,701.585 1202.08,819.899 1056.18,819.899C910.179,819.899 791.93,701.55 791.93,555.671C791.952,409.696 910.144,291.427 1056.18,291.427M1056.18,244.354C884.501,244.354 744.868,383.988 744.868,555.631C744.868,727.304 884.524,866.966 1056.18,866.966C1227.83,866.966 1367.48,727.303 1367.48,555.671C1367.48,384.031 1227.83,244.354 1056.18,244.354Z" style="fill:rgb(92,146,47);fill-rule:nonzero;"/>
        </g>
    </g>
    <defs>
        <linearGradient id="_Linear1" x1="0" y1="0" x2="1" y2="0" gradientUnits="userSpaceOnUse" gradientTransform="matrix(-91.3753,691.693,-475.748,-132.851,1930.04,1721.21)"><stop offset="0" style="stop-color:black;stop-opacity:0.31"/><stop offset="1" style="stop-color:white;stop-opacity:0"/></linearGradient>
        <linearGradient id="_Linear2" x1="0" y1="0" x2="1" y2="0" gradientUnits="userSpaceOnUse" gradientTransform="matrix(142.635,-541.916,541.898,142.64,1857.14,2306.82)"><stop offset="0" style="stop-color:white;stop-opacity:0"/><stop offset="1" style="stop-color:black;stop-opacity:0.31"/></linearGradient>
    </defs>
</svg>
